<?xml version="1.0" encoding="utf-8"?>
<!-- Generator: Adobe Illustrator 23.0.5, SVG Export Plug-In . SVG Version: 6.00 Build 0)  -->
<svg version="1.1" id="Capa_1" xmlns="http://www.w3.org/2000/svg" xmlns:xlink="http://www.w3.org/1999/xlink" x="0px" y="0px"
	 viewBox="0 0 80 76" style="enable-background:new 0 0 80 76;" xml:space="preserve">
<rect x="15.52" y="56.15" transform="matrix(0.7071 -0.7071 0.7071 0.7071 -35.4362 27.5909)" class="st0" width="0.14" height="0.83"/>
<rect x="14.56" y="55.19" transform="matrix(0.7071 -0.7071 0.7071 0.7071 -35.0387 26.6315)" class="st0" width="0.14" height="0.83"/>
<rect x="14.21" y="56.5" transform="matrix(0.7071 -0.7071 0.7071 0.7071 -35.7172 26.9126)" class="st0" width="0.83" height="0.14"/>
<rect x="15.17" y="55.54" transform="matrix(0.7071 -0.7071 0.7071 0.7071 -34.7578 27.31)" class="st0" width="0.83" height="0.14"/>
<rect x="19.56" y="46.39" transform="matrix(0.7071 -0.7071 0.7071 0.7071 -27.3523 27.588)" class="st0" width="0.14" height="0.83"/>
<rect x="18.6" y="45.43" transform="matrix(0.7071 -0.7071 0.7071 0.7071 -26.9549 26.6286)" class="st0" width="0.14" height="0.83"/>
<rect x="18.25" y="46.74" transform="matrix(0.7071 -0.7071 0.7071 0.7071 -27.6334 26.9098)" class="st0" width="0.83" height="0.14"/>
<rect x="19.21" y="45.78" transform="matrix(0.7071 -0.7071 0.7071 0.7071 -26.674 27.3072)" class="st0" width="0.83" height="0.14"/>
<rect x="11.3" y="56.2" transform="matrix(0.7071 -0.7071 0.7071 0.7071 -36.9002 24.7455)" class="st0" width="0.24" height="1.43"/>
<rect x="9.65" y="54.55" transform="matrix(0.7071 -0.7071 0.7071 0.7071 -36.2175 23.0973)" class="st0" width="0.24" height="1.43"/>
<rect x="9.06" y="56.8" transform="matrix(0.7071 -0.7071 0.7071 0.7071 -37.3828 23.58)" class="st0" width="1.43" height="0.24"/>
<rect x="10.7" y="55.15" transform="matrix(0.7071 -0.7071 0.7071 0.7071 -35.7346 24.2627)" class="st0" width="1.43" height="0.24"/>
<rect x="11.42" y="61.15" transform="matrix(0.7071 -0.7071 0.7071 0.7071 -40.1721 26.1603)" class="st0" width="0.14" height="0.83"/>
<rect x="10.46" y="60.2" transform="matrix(0.7071 -0.7071 0.7071 0.7071 -39.7747 25.2009)" class="st0" width="0.14" height="0.83"/>
<rect x="10.12" y="61.5" transform="matrix(0.7071 -0.7071 0.7071 0.7071 -40.4532 25.482)" class="st0" width="0.83" height="0.14"/>
<rect x="11.07" y="60.54" transform="matrix(0.7071 -0.7071 0.7071 0.7071 -39.4937 25.8794)" class="st0" width="0.83" height="0.14"/>
<rect x="15.92" y="61.2" transform="matrix(0.7071 -0.7071 0.7071 0.7071 -39.083 29.4786)" class="st0" width="0.24" height="1.43"/>
<rect x="14.27" y="59.55" transform="matrix(0.7071 -0.7071 0.7071 0.7071 -38.4003 27.8304)" class="st0" width="0.24" height="1.43"/>
<rect x="13.68" y="61.8" transform="matrix(0.7071 -0.7071 0.7071 0.7071 -39.5657 28.3131)" class="st0" width="1.43" height="0.24"/>
<rect x="15.33" y="60.15" transform="matrix(0.7071 -0.7071 0.7071 0.7071 -37.9175 28.9958)" class="st0" width="1.43" height="0.24"/>
<rect x="15.92" y="51.02" transform="matrix(0.7071 -0.7071 0.7071 0.7071 -31.8875 26.4981)" class="st0" width="0.24" height="1.43"/>
<rect x="14.27" y="49.38" transform="matrix(0.7071 -0.7071 0.7071 0.7071 -31.2048 24.8499)" class="st0" width="0.24" height="1.43"/>
<rect x="13.68" y="51.62" transform="matrix(0.7071 -0.7071 0.7071 0.7071 -32.3702 25.3327)" class="st0" width="1.43" height="0.24"/>
<rect x="15.33" y="49.97" transform="matrix(0.7071 -0.7071 0.7071 0.7071 -30.722 26.0154)" class="st0" width="1.43" height="0.24"/>
<rect x="19.9" y="61.2" transform="matrix(0.7071 -0.7071 0.7071 0.7071 -37.9194 32.2878)" class="st0" width="0.24" height="1.43"/>
<rect x="18.25" y="59.55" transform="matrix(0.7071 -0.7071 0.7071 0.7071 -37.2367 30.6396)" class="st0" width="0.24" height="1.43"/>
<rect x="17.65" y="61.8" transform="matrix(0.7071 -0.7071 0.7071 0.7071 -38.4021 31.1223)" class="st0" width="1.43" height="0.24"/>
<rect x="19.3" y="60.15" transform="matrix(0.7071 -0.7071 0.7071 0.7071 -36.7539 31.805)" class="st0" width="1.43" height="0.24"/>
<rect x="52.43" y="56.2" transform="matrix(0.7071 -0.7071 0.7071 0.7071 -24.8523 53.8317)" class="st0" width="0.24" height="1.43"/>
<rect x="50.79" y="54.55" transform="matrix(0.7071 -0.7071 0.7071 0.7071 -24.1696 52.1834)" class="st0" width="0.24" height="1.43"/>
<rect x="50.19" y="56.8" transform="matrix(0.7071 -0.7071 0.7071 0.7071 -25.335 52.666)" class="st0" width="1.43" height="0.24"/>
<rect x="51.84" y="55.15" transform="matrix(0.7071 -0.7071 0.7071 0.7071 -23.6868 53.3487)" class="st0" width="1.43" height="0.24"/>
<rect x="56.48" y="56.15" transform="matrix(0.7071 -0.7071 0.7071 0.7071 -23.4372 56.5588)" class="st0" width="0.14" height="0.83"/>
<rect x="55.53" y="55.19" transform="matrix(0.7071 -0.7071 0.7071 0.7071 -23.0398 55.5994)" class="st0" width="0.14" height="0.83"/>
<rect x="55.18" y="56.5" transform="matrix(0.7071 -0.7071 0.7071 0.7071 -23.7182 55.8808)" class="st0" width="0.83" height="0.14"/>
<rect x="56.14" y="55.54" transform="matrix(0.7071 -0.7071 0.7071 0.7071 -22.7588 56.2782)" class="st0" width="0.83" height="0.14"/>
<rect x="65.27" y="56.15" transform="matrix(0.7071 -0.7071 0.7071 0.7071 -20.8649 62.769)" class="st0" width="0.14" height="0.83"/>
<rect x="64.31" y="55.19" transform="matrix(0.7071 -0.7071 0.7071 0.7071 -20.4675 61.8096)" class="st0" width="0.14" height="0.83"/>
<rect x="63.96" y="56.5" transform="matrix(0.7071 -0.7071 0.7071 0.7071 -21.1458 62.091)" class="st0" width="0.83" height="0.14"/>
<rect x="64.92" y="55.54" transform="matrix(0.7071 -0.7071 0.7071 0.7071 -20.1864 62.4884)" class="st0" width="0.83" height="0.14"/>
<rect x="73.82" y="56.15" transform="matrix(0.7071 -0.7071 0.7071 0.7071 -18.3604 68.8153)" class="st0" width="0.14" height="0.83"/>
<rect x="72.86" y="55.19" transform="matrix(0.7071 -0.7071 0.7071 0.7071 -17.963 67.856)" class="st0" width="0.14" height="0.83"/>
<rect x="72.51" y="56.5" transform="matrix(0.7071 -0.7071 0.7071 0.7071 -18.6414 68.1374)" class="st0" width="0.83" height="0.14"/>
<rect x="73.47" y="55.54" transform="matrix(0.7071 -0.7071 0.7071 0.7071 -17.682 68.5348)" class="st0" width="0.83" height="0.14"/>
<rect x="60.47" y="46.39" transform="matrix(0.7071 -0.7071 0.7071 0.7071 -15.3679 56.5209)" class="st0" width="0.14" height="0.83"/>
<rect x="59.51" y="45.43" transform="matrix(0.7071 -0.7071 0.7071 0.7071 -14.9705 55.5615)" class="st0" width="0.14" height="0.83"/>
<rect x="59.17" y="46.74" transform="matrix(0.7071 -0.7071 0.7071 0.7071 -15.6488 55.843)" class="st0" width="0.83" height="0.14"/>
<rect x="60.13" y="45.78" transform="matrix(0.7071 -0.7071 0.7071 0.7071 -14.6894 56.2404)" class="st0" width="0.83" height="0.14"/>
<rect x="69.6" y="56.2" transform="matrix(0.7071 -0.7071 0.7071 0.7071 -19.8243 65.9703)" class="st0" width="0.24" height="1.43"/>
<rect x="67.95" y="54.55" transform="matrix(0.7071 -0.7071 0.7071 0.7071 -19.1416 64.3221)" class="st0" width="0.24" height="1.43"/>
<rect x="67.36" y="56.8" transform="matrix(0.7071 -0.7071 0.7071 0.7071 -20.307 64.8046)" class="st0" width="1.43" height="0.24"/>
<rect x="69" y="55.15" transform="matrix(0.7071 -0.7071 0.7071 0.7071 -18.6588 65.4873)" class="st0" width="1.43" height="0.24"/>
<rect x="57.06" y="50.77" transform="matrix(0.7071 -0.7071 0.7071 0.7071 -19.6597 55.5097)" class="st0" width="0.24" height="1.43"/>
<rect x="55.41" y="49.12" transform="matrix(0.7071 -0.7071 0.7071 0.7071 -18.9771 53.8615)" class="st0" width="0.24" height="1.43"/>
<rect x="54.81" y="51.37" transform="matrix(0.7071 -0.7071 0.7071 0.7071 -20.1425 54.3441)" class="st0" width="1.43" height="0.24"/>
<rect x="56.46" y="49.72" transform="matrix(0.7071 -0.7071 0.7071 0.7071 -18.4942 55.0268)" class="st0" width="1.43" height="0.24"/>
<rect x="65.67" y="50.77" transform="matrix(0.7071 -0.7071 0.7071 0.7071 -17.136 61.6025)" class="st0" width="0.24" height="1.43"/>
<rect x="64.03" y="49.12" transform="matrix(0.7071 -0.7071 0.7071 0.7071 -16.4533 59.9543)" class="st0" width="0.24" height="1.43"/>
<rect x="63.43" y="51.37" transform="matrix(0.7071 -0.7071 0.7071 0.7071 -17.6188 60.4369)" class="st0" width="1.43" height="0.24"/>
<rect x="65.08" y="49.72" transform="matrix(0.7071 -0.7071 0.7071 0.7071 -15.9705 61.1196)" class="st0" width="1.43" height="0.24"/>
<rect x="52.56" y="61.15" transform="matrix(0.7071 -0.7071 0.7071 0.7071 -28.1243 55.2461)" class="st0" width="0.14" height="0.83"/>
<rect x="51.6" y="60.2" transform="matrix(0.7071 -0.7071 0.7071 0.7071 -27.7268 54.2867)" class="st0" width="0.14" height="0.83"/>
<rect x="51.25" y="61.5" transform="matrix(0.7071 -0.7071 0.7071 0.7071 -28.4053 54.5681)" class="st0" width="0.83" height="0.14"/>
<rect x="52.21" y="60.54" transform="matrix(0.7071 -0.7071 0.7071 0.7071 -27.4459 54.9655)" class="st0" width="0.83" height="0.14"/>
<rect x="60.61" y="61.15" transform="matrix(0.7071 -0.7071 0.7071 0.7071 -25.7658 60.9399)" class="st0" width="0.14" height="0.83"/>
<rect x="59.65" y="60.2" transform="matrix(0.7071 -0.7071 0.7071 0.7071 -25.3684 59.9805)" class="st0" width="0.14" height="0.83"/>
<rect x="59.3" y="61.5" transform="matrix(0.7071 -0.7071 0.7071 0.7071 -26.0468 60.262)" class="st0" width="0.83" height="0.14"/>
<rect x="60.26" y="60.54" transform="matrix(0.7071 -0.7071 0.7071 0.7071 -25.0874 60.6594)" class="st0" width="0.83" height="0.14"/>
<rect x="69.72" y="61.15" transform="matrix(0.7071 -0.7071 0.7071 0.7071 -23.0963 67.3847)" class="st0" width="0.14" height="0.83"/>
<rect x="68.76" y="60.2" transform="matrix(0.7071 -0.7071 0.7071 0.7071 -22.6989 66.4253)" class="st0" width="0.14" height="0.83"/>
<rect x="68.42" y="61.5" transform="matrix(0.7071 -0.7071 0.7071 0.7071 -23.3773 66.7067)" class="st0" width="0.83" height="0.14"/>
<rect x="69.38" y="60.54" transform="matrix(0.7071 -0.7071 0.7071 0.7071 -22.4179 67.1042)" class="st0" width="0.83" height="0.14"/>
<rect x="74.22" y="61.2" transform="matrix(0.7071 -0.7071 0.7071 0.7071 -22.0072 70.7034)" class="st0" width="0.24" height="1.43"/>
<rect x="72.58" y="59.55" transform="matrix(0.7071 -0.7071 0.7071 0.7071 -21.3245 69.0552)" class="st0" width="0.24" height="1.43"/>
<rect x="71.98" y="61.8" transform="matrix(0.7071 -0.7071 0.7071 0.7071 -22.4899 69.5377)" class="st0" width="1.43" height="0.24"/>
<rect x="73.63" y="60.15" transform="matrix(0.7071 -0.7071 0.7071 0.7071 -20.8417 70.2204)" class="st0" width="1.43" height="0.24"/>
<rect x="74.22" y="51.02" transform="matrix(0.7071 -0.7071 0.7071 0.7071 -14.8117 67.7229)" class="st0" width="0.24" height="1.43"/>
<rect x="72.58" y="49.38" transform="matrix(0.7071 -0.7071 0.7071 0.7071 -14.1289 66.0747)" class="st0" width="0.24" height="1.43"/>
<rect x="71.98" y="51.62" transform="matrix(0.7071 -0.7071 0.7071 0.7071 -15.2944 66.5573)" class="st0" width="1.43" height="0.24"/>
<rect x="73.63" y="49.97" transform="matrix(0.7071 -0.7071 0.7071 0.7071 -13.6462 67.24)" class="st0" width="1.43" height="0.24"/>
<rect x="22.88" y="56.2" transform="matrix(0.7071 -0.7071 0.7071 0.7071 -33.5074 32.9364)" class="st0" width="0.24" height="1.43"/>
<rect x="21.24" y="54.55" transform="matrix(0.7071 -0.7071 0.7071 0.7071 -32.8247 31.2881)" class="st0" width="0.24" height="1.43"/>
<rect x="20.64" y="56.8" transform="matrix(0.7071 -0.7071 0.7071 0.7071 -33.9901 31.7708)" class="st0" width="1.43" height="0.24"/>
<rect x="22.29" y="55.15" transform="matrix(0.7071 -0.7071 0.7071 0.7071 -32.3419 32.4535)" class="st0" width="1.43" height="0.24"/>
<rect x="26.93" y="56.15" transform="matrix(0.7071 -0.7071 0.7071 0.7071 -32.0923 35.6638)" class="st0" width="0.14" height="0.83"/>
<rect x="25.98" y="55.19" transform="matrix(0.7071 -0.7071 0.7071 0.7071 -31.6949 34.7044)" class="st0" width="0.14" height="0.83"/>
<rect x="25.63" y="56.5" transform="matrix(0.7071 -0.7071 0.7071 0.7071 -32.3733 34.9855)" class="st0" width="0.83" height="0.14"/>
<rect x="26.59" y="55.54" transform="matrix(0.7071 -0.7071 0.7071 0.7071 -31.4139 35.3829)" class="st0" width="0.83" height="0.14"/>
<rect x="35.72" y="56.15" transform="matrix(0.7071 -0.7071 0.7071 0.7071 -29.5199 41.8738)" class="st0" width="0.14" height="0.83"/>
<rect x="34.76" y="55.19" transform="matrix(0.7071 -0.7071 0.7071 0.7071 -29.1225 40.9144)" class="st0" width="0.14" height="0.83"/>
<rect x="34.41" y="56.5" transform="matrix(0.7071 -0.7071 0.7071 0.7071 -29.8009 41.1957)" class="st0" width="0.83" height="0.14"/>
<rect x="35.37" y="55.54" transform="matrix(0.7071 -0.7071 0.7071 0.7071 -28.8415 41.5931)" class="st0" width="0.83" height="0.14"/>
<rect x="44.27" y="56.15" transform="matrix(0.7071 -0.7071 0.7071 0.7071 -27.0154 47.9201)" class="st0" width="0.14" height="0.83"/>
<rect x="43.31" y="55.19" transform="matrix(0.7071 -0.7071 0.7071 0.7071 -26.618 46.9608)" class="st0" width="0.14" height="0.83"/>
<rect x="42.96" y="56.5" transform="matrix(0.7071 -0.7071 0.7071 0.7071 -27.2965 47.2421)" class="st0" width="0.83" height="0.14"/>
<rect x="43.92" y="55.54" transform="matrix(0.7071 -0.7071 0.7071 0.7071 -26.3371 47.6395)" class="st0" width="0.83" height="0.14"/>
<rect x="48.31" y="46.39" transform="matrix(0.7071 -0.7071 0.7071 0.7071 -18.9316 47.9172)" class="st0" width="0.14" height="0.83"/>
<rect x="47.35" y="45.43" transform="matrix(0.7071 -0.7071 0.7071 0.7071 -18.5342 46.9578)" class="st0" width="0.14" height="0.83"/>
<rect x="47" y="46.74" transform="matrix(0.7071 -0.7071 0.7071 0.7071 -19.2126 47.2393)" class="st0" width="0.83" height="0.14"/>
<rect x="47.96" y="45.78" transform="matrix(0.7071 -0.7071 0.7071 0.7071 -18.2532 47.6367)" class="st0" width="0.83" height="0.14"/>
<rect x="30.92" y="46.39" transform="matrix(0.7071 -0.7071 0.7071 0.7071 -24.0229 35.6259)" class="st0" width="0.14" height="0.83"/>
<rect x="29.96" y="45.43" transform="matrix(0.7071 -0.7071 0.7071 0.7071 -23.6255 34.6665)" class="st0" width="0.14" height="0.83"/>
<rect x="29.62" y="46.74" transform="matrix(0.7071 -0.7071 0.7071 0.7071 -24.304 34.9477)" class="st0" width="0.83" height="0.14"/>
<rect x="30.58" y="45.78" transform="matrix(0.7071 -0.7071 0.7071 0.7071 -23.3445 35.3451)" class="st0" width="0.83" height="0.14"/>
<rect x="40.05" y="56.2" transform="matrix(0.7071 -0.7071 0.7071 0.7071 -28.4794 45.075)" class="st0" width="0.24" height="1.43"/>
<rect x="38.4" y="54.55" transform="matrix(0.7071 -0.7071 0.7071 0.7071 -27.7967 43.4268)" class="st0" width="0.24" height="1.43"/>
<rect x="37.81" y="56.8" transform="matrix(0.7071 -0.7071 0.7071 0.7071 -28.9621 43.9093)" class="st0" width="1.43" height="0.24"/>
<rect x="39.45" y="55.15" transform="matrix(0.7071 -0.7071 0.7071 0.7071 -27.3139 44.5921)" class="st0" width="1.43" height="0.24"/>
<rect x="27.51" y="50.77" transform="matrix(0.7071 -0.7071 0.7071 0.7071 -28.3149 34.6144)" class="st0" width="0.24" height="1.43"/>
<rect x="25.86" y="49.12" transform="matrix(0.7071 -0.7071 0.7071 0.7071 -27.6322 32.9662)" class="st0" width="0.24" height="1.43"/>
<rect x="25.26" y="51.37" transform="matrix(0.7071 -0.7071 0.7071 0.7071 -28.7976 33.449)" class="st0" width="1.43" height="0.24"/>
<rect x="26.91" y="49.72" transform="matrix(0.7071 -0.7071 0.7071 0.7071 -27.1493 34.1317)" class="st0" width="1.43" height="0.24"/>
<rect x="36.12" y="50.77" transform="matrix(0.7071 -0.7071 0.7071 0.7071 -25.7911 40.7072)" class="st0" width="0.24" height="1.43"/>
<rect x="34.47" y="49.12" transform="matrix(0.7071 -0.7071 0.7071 0.7071 -25.1084 39.059)" class="st0" width="0.24" height="1.43"/>
<rect x="33.88" y="51.37" transform="matrix(0.7071 -0.7071 0.7071 0.7071 -26.2738 39.5416)" class="st0" width="1.43" height="0.24"/>
<rect x="35.53" y="49.72" transform="matrix(0.7071 -0.7071 0.7071 0.7071 -24.6256 40.2244)" class="st0" width="1.43" height="0.24"/>
<rect x="23.01" y="61.15" transform="matrix(0.7071 -0.7071 0.7071 0.7071 -36.7793 34.3511)" class="st0" width="0.14" height="0.83"/>
<rect x="22.05" y="60.2" transform="matrix(0.7071 -0.7071 0.7071 0.7071 -36.3819 33.3917)" class="st0" width="0.14" height="0.83"/>
<rect x="21.7" y="61.5" transform="matrix(0.7071 -0.7071 0.7071 0.7071 -37.0604 33.6728)" class="st0" width="0.83" height="0.14"/>
<rect x="22.66" y="60.54" transform="matrix(0.7071 -0.7071 0.7071 0.7071 -36.101 34.0702)" class="st0" width="0.83" height="0.14"/>
<rect x="31.06" y="61.15" transform="matrix(0.7071 -0.7071 0.7071 0.7071 -34.4209 40.045)" class="st0" width="0.14" height="0.83"/>
<rect x="30.1" y="60.2" transform="matrix(0.7071 -0.7071 0.7071 0.7071 -34.0235 39.0856)" class="st0" width="0.14" height="0.83"/>
<rect x="29.75" y="61.5" transform="matrix(0.7071 -0.7071 0.7071 0.7071 -34.7019 39.3667)" class="st0" width="0.83" height="0.14"/>
<rect x="30.71" y="60.54" transform="matrix(0.7071 -0.7071 0.7071 0.7071 -33.7425 39.7641)" class="st0" width="0.83" height="0.14"/>
<rect x="40.17" y="61.15" transform="matrix(0.7071 -0.7071 0.7071 0.7071 -31.7513 46.4895)" class="st0" width="0.14" height="0.83"/>
<rect x="39.21" y="60.2" transform="matrix(0.7071 -0.7071 0.7071 0.7071 -31.3539 45.5301)" class="st0" width="0.14" height="0.83"/>
<rect x="38.87" y="61.5" transform="matrix(0.7071 -0.7071 0.7071 0.7071 -32.0324 45.8115)" class="st0" width="0.83" height="0.14"/>
<rect x="39.83" y="60.54" transform="matrix(0.7071 -0.7071 0.7071 0.7071 -31.073 46.2088)" class="st0" width="0.83" height="0.14"/>
<rect x="44.67" y="61.2" transform="matrix(0.7071 -0.7071 0.7071 0.7071 -30.6623 49.8081)" class="st0" width="0.24" height="1.43"/>
<rect x="43.02" y="59.55" transform="matrix(0.7071 -0.7071 0.7071 0.7071 -29.9796 48.1599)" class="st0" width="0.24" height="1.43"/>
<rect x="42.43" y="61.8" transform="matrix(0.7071 -0.7071 0.7071 0.7071 -31.145 48.6425)" class="st0" width="1.43" height="0.24"/>
<rect x="44.08" y="60.15" transform="matrix(0.7071 -0.7071 0.7071 0.7071 -29.4967 49.3252)" class="st0" width="1.43" height="0.24"/>
<rect x="44.67" y="51.02" transform="matrix(0.7071 -0.7071 0.7071 0.7071 -23.4668 46.8276)" class="st0" width="0.24" height="1.43"/>
<rect x="43.02" y="49.38" transform="matrix(0.7071 -0.7071 0.7071 0.7071 -22.784 45.1794)" class="st0" width="0.24" height="1.43"/>
<rect x="42.43" y="51.62" transform="matrix(0.7071 -0.7071 0.7071 0.7071 -23.9494 45.662)" class="st0" width="1.43" height="0.24"/>
<rect x="44.08" y="49.97" transform="matrix(0.7071 -0.7071 0.7071 0.7071 -22.3012 46.3447)" class="st0" width="1.43" height="0.24"/>
<rect x="48.65" y="61.2" transform="matrix(0.7071 -0.7071 0.7071 0.7071 -29.4987 52.6173)" class="st0" width="0.24" height="1.43"/>
<rect x="47" y="59.55" transform="matrix(0.7071 -0.7071 0.7071 0.7071 -28.816 50.9691)" class="st0" width="0.24" height="1.43"/>
<rect x="46.4" y="61.8" transform="matrix(0.7071 -0.7071 0.7071 0.7071 -29.9814 51.4516)" class="st0" width="1.43" height="0.24"/>
<rect x="48.05" y="60.15" transform="matrix(0.7071 -0.7071 0.7071 0.7071 -28.3331 52.1343)" class="st0" width="1.43" height="0.24"/>
<g>
	<defs>
		<polyline id="SVGID_1_" points="76.95,-8.91 -36.07,-8.91 -36.07,71 76.95,71 		"/>
	</defs>
	<clipPath id="SVGID_2_">
		<use xlink:href="#SVGID_1_"  style="overflow:visible;"/>
	</clipPath>
	<path class="st1" d="M40.32,92.2c1.09-14.21-1.62-31.56-7.07-39.83l-4.58,3.57l7.78,38.63l5.32-0.82L40.32,92.2z"/>
	<path class="st2" d="M31.64,54.37c0,0,1.78,28.35-2.75,40.76l0.95,1.39h-6.1V53.8L31.64,54.37z"/>
	<path class="st3" d="M31.68,55.08c0,0,1.83,27.65-2.84,40.06"/>
	<path class="st4" d="M34.45,53.25l-10.66,3.61l0-6.26c0-3.64,0.48-8.17,4.17-9.14c3.69-0.97,6.16,0.99,6.32,4.4
		C34.45,49.28,34.45,53.25,34.45,53.25"/>
</g>
<polygon class="st0" points="31.85,35.5 31.85,38.79 27.79,39.78 27.79,34.25 31.85,33.25 "/>
<g>
	<defs>
		<polyline id="SVGID_3_" points="76.95,-8.91 -36.07,-8.91 -36.07,71 76.95,71 		"/>
	</defs>
	<clipPath id="SVGID_4_">
		<use xlink:href="#SVGID_3_"  style="overflow:visible;"/>
	</clipPath>
	<path class="st5" d="M29.56,36.42c0.06,0,0.11,0.05,0.11,0.11c0,0.06-0.05,0.11-0.11,0.11c-0.06,0-0.11-0.05-0.11-0.11
		C29.45,36.47,29.5,36.42,29.56,36.42"/>
	<path class="st5" d="M31.23,36.42c0.06,0,0.11,0.05,0.11,0.11c0,0.06-0.05,0.11-0.11,0.11c-0.06,0-0.11-0.05-0.11-0.11
		C31.12,36.47,31.17,36.42,31.23,36.42"/>
</g>
<path class="st6" d="M29.3,35.46h0.87 M30.75,37.23v-1.77h0.88"/>
<g>
	<defs>
		<polyline id="SVGID_5_" points="76.95,-8.91 -36.07,-8.91 -36.07,71 76.95,71 		"/>
	</defs>
	<clipPath id="SVGID_6_">
		<use xlink:href="#SVGID_5_"  style="overflow:visible;"/>
	</clipPath>
	<path class="st7" d="M28.06,36.36v0.58c-0.31,0-0.57-0.25-0.57-0.57c0-0.02,0-0.03,0-0.05C27.52,35.97,28.06,36.01,28.06,36.36"/>
	<path class="st8" d="M57.4,41.8c0,0-2.18-6.71-8.08-13.59c-1.48-5.88-1.69-3.12-1.69-3.12s0.34,1.86-0.53,1.33
		c-0.66-0.4,0.09,2.26,0.91,2.44c0.59,0.12,2.1,5.51,3.04,8.08c0.94,2.57,4.93,10.9,4.93,10.9 M32.35,41.34
		c0,0,2.97-7.47,9.44-13.87c1.62-5.61,1.97-2.57,1.88-2.18c-0.1,0.39-0.37,1.32-0.04,1.18c1.04-0.45,0.91,0.7-0.22,1.55
		c-0.48,0.36-2.41,5.17-3.35,7.74c-0.94,2.57-4.82,9.8-4.82,9.8 M23.46,45.56c0,0-6.13-6.74-8.3-15.75
		c-1.43-5.95,0.26-3.13,0.26-3.13s0.36,0.7,0.67,0.53c0.66-0.35,0.89,0.97,0.82,1.56c-0.07,0.59,3.34,4.63,5.12,6.7
		c1.78,2.07,3.8,5.57,3.8,5.57 M28.03,36.28c0,0,0.65-0.61,0.76-1.41l2.54-0.31 M31.84,34.4l0.5-1.4c0,0-4.21-0.56-5.28,1.64
		l0.58,1.46 M30.72,37.18l-0.37,0.09 M31.84,38.8l-4.07,1 M30.36,37.6c-0.32,0-0.58-0.26-0.58-0.58 M28.04,36.95
		c-0.31,0-0.57-0.26-0.57-0.57"/>
	<path class="st9" d="M47.22,88.07c2.73-17.95,5.48-27.57,11.15-37.13l9.03,6.39L56.46,73.4l-5.89,17.71l-5.1-1.74L47.22,88.07z"/>
</g>
<polygon class="st10" points="57.36,52.76 59.42,71 67.37,71 67.37,52.76 "/>
<g>
	<defs>
		<polyline id="SVGID_7_" points="76.95,-8.91 -36.07,-8.91 -36.07,71 76.95,71 		"/>
	</defs>
	<clipPath id="SVGID_8_">
		<use xlink:href="#SVGID_7_"  style="overflow:visible;"/>
	</clipPath>
	<line class="st11" x1="57.31" y1="52.71" x2="62.21" y2="95.3"/>
	<path class="st12" d="M55.97,55.18l11.43,2.68v-6.43c0-3.74-0.5-8.4-4.29-9.4c-3.79-1-6.33,1.02-6.5,4.52
		C56.43,50.06,55.97,55.18,55.97,55.18"/>
	<path class="st12" d="M59.56,36.35v1.48c0,1.14,0.78,2.14,1.89,2.41l2.35,0.58v-5.78l-1.96-0.48c-0.99-0.24-1.99,0.36-2.23,1.35
		C59.58,36.05,59.56,36.2,59.56,36.35"/>
	<path class="st11" d="M59.51,37.78c0,1.18,0.8,2.21,1.93,2.49l2.4,0.6"/>
	<path class="st13" d="M61.96,37.31c0.06,0,0.11,0.05,0.11,0.11c0,0.06-0.05,0.11-0.11,0.11c-0.06,0-0.11-0.05-0.11-0.11
		C61.84,37.36,61.89,37.31,61.96,37.31"/>
	<path class="st13" d="M60.22,37.31c0.06,0,0.11,0.05,0.11,0.11c0,0.06-0.05,0.11-0.11,0.11c-0.06,0-0.11-0.05-0.11-0.11
		C60.1,37.36,60.15,37.31,60.22,37.31"/>
	<path class="st14" d="M67.03,46.02c0,0,5.37,8.31,2.76,9.73c-1.29,0.7-5.33-1.14-6.35-1.75c-1.29,0.47-1.9,0.24-2.59-0.33
		l0.28-0.86c0,0-1.54-2.16-0.85-1.76c0.69,0.4,6.08,1.74,6.08,1.74l-1.05-2.84 M59.53,36.85c0,0,2.7,0.52,3.11-1.12
		c0,0,0.21,1.17,0.89,1.41 M61.19,40.14c0,0,0.42,1.8-0.79,2.53c-0.19,0.12-0.31,0.33-0.31,0.56c-0.01,0.91-0.21,3.02-1.82,2.74
		c-1.31-0.23-0.94-2.47-0.5-4.03c0.27-0.98,0.38-2,0.33-3.01c-0.12-2.13,0.26-5.79,4.23-5.37c0.59,0.05,1.16,0.25,1.66,0.56
		c1.03,0.66,2.18,2.13-0.19,5 M61.19,38.27c0.15,0.15,0.4,0.15,0.56,0 M63.52,37.82c0.33,0,0.6-0.27,0.6-0.6 M63.52,37.21v0.61
		c0.33,0,0.6-0.27,0.6-0.6c0-0.02,0-0.04,0-0.05C64.08,36.8,63.52,36.84,63.52,37.21z M60.7,36.31v1.76h0.31"/>
	<path class="st13" d="M67.45,60.14v4.05c-2.58-1.65-5.3-7.77-5.3-7.77C63.43,57.76,65.44,59.22,67.45,60.14"/>
</g>
<line class="st15" x1="45.51" y1="24.52" x2="45.51" y2="21.72"/>
<line class="st15" x1="46.67" y1="24.59" x2="47.64" y2="21.96"/>
<line class="st15" x1="44.55" y1="24.46" x2="43.58" y2="21.82"/>
</svg>
